<?xml version="1.0" encoding="utf-8"?>
<svg version="1.0" xmlns="http://www.w3.org/2000/svg" width="1080.000000pt" height="1080.000000pt" viewBox="0 0 1080.000000 1080.000000" preserveAspectRatio="xMidYMid meet">
  <rect x="92.054" y="161.644" width="736.438" height="618.082" style="stroke: rgb(0, 0, 0); fill: rgb(255, 255, 255);"/>
  <rect x="613.151" y="648.219" width="378.082" height="274.521" style="stroke: rgb(0, 0, 0); fill: rgb(255, 255, 255);"/>
  <rect x="734.794" y="543.014" width="143.014" height="95.342" style="stroke: rgb(0, 0, 0); fill: rgb(255, 255, 255);"/>
  <g transform="translate(0.000000,1080.000000) scale(0.100000,-0.100000)" fill="#000000" stroke="none">
    <path d="M 1655 9650 C 1127 9643 935 9633 848 9610 C 788 9593 674 9522 614 9462 C 514 9362 449 9226 430 9078 C 403 8860 398 8336 403 5990 C 406 4445 412 3529 419 3390 C 430 3184 431 3173 460 3112 C 520 2983 659 2841 787 2778 C 829 2758 873 2745 925 2739 C 1096 2720 2076 2709 3670 2707 L 5864.589 2705 L 5818.274 2910.247 L 5869.589 3230.562 L 5198 3254 C 5108 3257 4946 3263 4838 3266 L 4641 3273 L 4636 3324 C 4633 3352 4626 3506 4620 3665 C 4602 4151 4588 4246 4510 4423 C 4418 4634 4302 4820 4180 4954 C 4140 4997 3814 5302 3792 5316 C 3790 5317 3818 5357 3854 5404 C 4025 5628 4100 5832 4100 6075 C 4100 6367 3982 6643 3764 6856 C 3584 7033 3387 7139 3151 7186 C 3029 7210 2828 7201 2702 7166 C 2311 7057 2004 6731 1915 6330 C 1883 6188 1877 6095 1889 5970 C 1911 5758 1968 5604 2092 5425 L 2165 5318 L 2130 5288 C 2024 5195 1805 4985 1742 4915 C 1593 4752 1465 4530 1401 4325 C 1328 4089 1309 3941 1303 3562 L 1298 3250 L 1141 3252 L 985 3255 L 976 5200 C 972 6270 971 7236 975 7347 L 982 7548 L 1019 7555 C 1128 7576 1862 7582 4863 7587 L 8170 7592 L 8170 6926 L 8186.438 5733.973 L 8495.315 5733.973 L 8672.685 5684.658 L 8717 7563 C 8711 9014 8707 9120 8649 9297 C 8620 9387 8584 9429 8445 9539 L 8321 9637 L 6958 9644 C 4478 9655 2213 9658 1655 9650 Z M 7542 9101 C 7978 9095 8112 9090 8124 9081 C 8159 9052 8163 9000 8167 8588 L 8172 8180 L 4561 8180 L 950 8180 L 949 8408 C 947 8725 950 8864 961 8945 C 973 9039 986 9068 1018 9074 C 1079 9086 1268 9093 1684 9100 C 2294 9109 6848 9110 7542 9101 Z M 3112 6631 C 3277 6589 3395 6497 3463 6358 C 3578 6125 3544 5875 3374 5705 C 3243 5574 3064 5518 2885 5551 C 2725 5580 2578 5701 2497 5870 C 2445 5978 2425 6065 2433 6148 C 2456 6404 2717 6649 2966 6650 C 3005 6650 3071 6641 3112 6631 Z M 3174 4944 C 3522 4884 3783 4676 3955 4325 C 4039 4154 4043 4130 4048 3674 L 4052 3272 L 3393 3266 C 3031 3263 2543 3258 2308 3254 L 1880 3249 L 1880 3472 C 1880 3724 1893 3950 1916 4090 C 1947 4284 2043 4460 2210 4631 C 2344 4768 2478 4852 2651 4909 C 2808 4961 3005 4974 3174 4944 Z"/>
    <path d="M1605 8911 c-83 -21 -155 -80 -197 -161 -35 -67 -33 -178 4 -240 33 -56 117 -136 163 -156 80 -33 180 -3 265 79 56 53 80 107 80 183 0 89 -23 154 -75 212 -62 69 -161 103 -240 83z"/>
    <path d="M2516 8901 c-128 -52 -198 -199 -162 -340 28 -110 91 -177 189 -202 179 -44 350 106 335 295 -3 34 -15 80 -27 104 -64 126 -216 191 -335 143z"/>
    <path d="M3492 8885 c-168 -86 -209 -317 -78 -448 81 -82 200 -116 272 -79 58 30 148 131 168 188 58 172 -61 349 -242 361 -58 4 -74 1 -120 -22z"/>
    <path d="M5050 6535 l0 -275 1170 0 1170 0 0 275 0 275 -1170 0 -1170 0 0 -275z"/>
    <path d="M7885 5790 c-275 -18 -419 -52 -530 -126 -182 -120 -312 -302 -366 -512 -11 -44 -23 -135 -28 -211 -9 -161 -9 -161 -120 -161 -168 0 -362 -45 -504 -116 -128 -64 -201 -116 -293 -209 -139 -139 -202 -271 -224 -465 -14 -128 -33 -1328 -25 -1610 15 -573 53 -684 324 -959 125 -127 183 -160 336 -190 206 -41 299 -43 1786 -48 l1435 -5 105 52 c278 139 407 260 512 478 38 79 52 124 62 190 30 201 40 478 40 1147 0 683 -10 933 -41 1050 -54 208 -293 487 -495 579 -106 48 -290 86 -489 101 -47 3 -97 8 -111 11 l-26 5 -6 152 c-3 84 -13 188 -22 232 -63 303 -275 517 -574 580 -153 32 -524 49 -746 35z m608 -604 c141 -27 187 -103 187 -311 l0 -95 -565 0 -565 0 -1 83 c-1 122 1 158 13 197 21 71 86 113 199 130 95 14 656 11 732 -4z m916 -1006 c200 -12 237 -24 333 -102 l76 -63 -4 -785 c-6 -1037 -17 -1239 -72 -1347 -25 -47 -43 -64 -109 -97 -85 -42 -249 -47 -1707 -53 l-1318 -5 -114 113 -114 114 1 1020 0 1020 117 97 117 97 1320 0 c726 0 1389 -4 1474 -9z"/>
    <path d="M5050 5495 l0 -295 663 2 662 3 3 293 2 292 -665 0 -665 0 0 -295z"/>
  </g>
</svg>